TITLE ""
FILE "LR_black_phrase_E_B07.mp3" MP3
  TRACK 01 AUDIO
    TITLE "LR_black_phrase_E_B07_001"
    INDEX 01 00:00:00
  TRACK 02 AUDIO
    TITLE "LR_black_phrase_E_B07_002"
    INDEX 01 00:00:16
  TRACK 03 AUDIO
    TITLE "LR_black_phrase_E_B07_003"
    INDEX 01 00:01:43
  TRACK 04 AUDIO
    TITLE "LR_black_phrase_E_B07_004"
    INDEX 01 00:01:72
  TRACK 05 AUDIO
    TITLE "LR_black_phrase_E_B07_005"
    INDEX 01 00:04:57
  TRACK 06 AUDIO
    TITLE "LR_black_phrase_E_B07_006"
    INDEX 01 00:05:39
  TRACK 07 AUDIO
    TITLE "LR_black_phrase_E_B07_007"
    INDEX 01 00:08:24
  TRACK 08 AUDIO
    TITLE "LR_black_phrase_E_B07_008"
    INDEX 01 00:09:27
  TRACK 09 AUDIO
    TITLE "LR_black_phrase_E_B07_009"
    INDEX 01 00:10:26
  TRACK 10 AUDIO
    TITLE "LR_black_phrase_E_B07_010"
    INDEX 01 00:10:56
  TRACK 11 AUDIO
    TITLE "LR_black_phrase_E_B07_011"
    INDEX 01 00:12:74
  TRACK 12 AUDIO
    TITLE "LR_black_phrase_E_B07_012"
    INDEX 01 00:13:56
  TRACK 13 AUDIO
    TITLE "LR_black_phrase_E_B07_013"
    INDEX 01 00:15:75
  TRACK 14 AUDIO
    TITLE "LR_black_phrase_E_B07_014"
    INDEX 01 00:17:05
  TRACK 15 AUDIO
    TITLE "LR_black_phrase_E_B07_015"
    INDEX 01 00:18:36
  TRACK 16 AUDIO
    TITLE "LR_black_phrase_E_B07_016"
    INDEX 01 00:18:67
  TRACK 17 AUDIO
    TITLE "LR_black_phrase_E_B07_017"
    INDEX 01 00:21:22
  TRACK 18 AUDIO
    TITLE "LR_black_phrase_E_B07_018"
    INDEX 01 00:22:02
  TRACK 19 AUDIO
    TITLE "LR_black_phrase_E_B07_019"
    INDEX 01 00:24:34
  TRACK 20 AUDIO
    TITLE "LR_black_phrase_E_B07_020"
    INDEX 01 00:25:34
  TRACK 21 AUDIO
    TITLE "LR_black_phrase_E_B07_021"
    INDEX 01 00:26:55
  TRACK 22 AUDIO
    TITLE "LR_black_phrase_E_B07_022"
    INDEX 01 00:26:74
  TRACK 23 AUDIO
    TITLE "LR_black_phrase_E_B07_023"
    INDEX 01 00:29:24
  TRACK 24 AUDIO
    TITLE "LR_black_phrase_E_B07_024"
    INDEX 01 00:29:67
  TRACK 25 AUDIO
    TITLE "LR_black_phrase_E_B07_025"
    INDEX 01 00:32:16
  TRACK 26 AUDIO
    TITLE "LR_black_phrase_E_B07_026"
    INDEX 01 00:33:12
  TRACK 27 AUDIO
    TITLE "LR_black_phrase_E_B07_027"
    INDEX 01 00:34:17
  TRACK 28 AUDIO
    TITLE "LR_black_phrase_E_B07_028"
    INDEX 01 00:34:37
  TRACK 29 AUDIO
    TITLE "LR_black_phrase_E_B07_029"
    INDEX 01 00:36:43
  TRACK 30 AUDIO
    TITLE "LR_black_phrase_E_B07_030"
    INDEX 01 00:37:11
  TRACK 31 AUDIO
    TITLE "LR_black_phrase_E_B07_031"
    INDEX 01 00:39:18
  TRACK 32 AUDIO
    TITLE "LR_black_phrase_E_B07_032"
    INDEX 01 00:40:12
  TRACK 33 AUDIO
    TITLE "LR_black_phrase_E_B07_033"
    INDEX 01 00:41:37
  TRACK 34 AUDIO
    TITLE "LR_black_phrase_E_B07_034"
    INDEX 01 00:41:56
  TRACK 35 AUDIO
    TITLE "LR_black_phrase_E_B07_035"
    INDEX 01 00:43:59
  TRACK 36 AUDIO
    TITLE "LR_black_phrase_E_B07_036"
    INDEX 01 00:44:27
  TRACK 37 AUDIO
    TITLE "LR_black_phrase_E_B07_037"
    INDEX 01 00:46:28
  TRACK 38 AUDIO
    TITLE "LR_black_phrase_E_B07_038"
    INDEX 01 00:47:27
  TRACK 39 AUDIO
    TITLE "LR_black_phrase_E_B07_039"
    INDEX 01 00:48:41
  TRACK 40 AUDIO
    TITLE "LR_black_phrase_E_B07_040"
    INDEX 01 00:48:72
  TRACK 41 AUDIO
    TITLE "LR_black_phrase_E_B07_041"
    INDEX 01 00:50:57
  TRACK 42 AUDIO
    TITLE "LR_black_phrase_E_B07_042"
    INDEX 01 00:51:41
  TRACK 43 AUDIO
    TITLE "LR_black_phrase_E_B07_043"
    INDEX 01 00:53:30
  TRACK 44 AUDIO
    TITLE "LR_black_phrase_E_B07_044"
    INDEX 01 00:54:35
  TRACK 45 AUDIO
    TITLE "LR_black_phrase_E_B07_045"
    INDEX 01 00:55:45
  TRACK 46 AUDIO
    TITLE "LR_black_phrase_E_B07_046"
    INDEX 01 00:56:01
  TRACK 47 AUDIO
    TITLE "LR_black_phrase_E_B07_047"
    INDEX 01 00:58:47
  TRACK 48 AUDIO
    TITLE "LR_black_phrase_E_B07_048"
    INDEX 01 00:59:25
  TRACK 49 AUDIO
    TITLE "LR_black_phrase_E_B07_049"
    INDEX 01 01:01:73
  TRACK 50 AUDIO
    TITLE "LR_black_phrase_E_B07_050"
    INDEX 01 01:02:74
  TRACK 51 AUDIO
    TITLE "LR_black_phrase_E_B07_051"
    INDEX 01 01:04:18
  TRACK 52 AUDIO
    TITLE "LR_black_phrase_E_B07_052"
    INDEX 01 01:04:48
  TRACK 53 AUDIO
    TITLE "LR_black_phrase_E_B07_053"
    INDEX 01 01:06:64
  TRACK 54 AUDIO
    TITLE "LR_black_phrase_E_B07_054"
    INDEX 01 01:07:42
  TRACK 55 AUDIO
    TITLE "LR_black_phrase_E_B07_055"
    INDEX 01 01:09:58
  TRACK 56 AUDIO
    TITLE "LR_black_phrase_E_B07_056"
    INDEX 01 01:10:58
  TRACK 57 AUDIO
    TITLE "LR_black_phrase_E_B07_057"
    INDEX 01 01:12:04
  TRACK 58 AUDIO
    TITLE "LR_black_phrase_E_B07_058"
    INDEX 01 01:12:27
  TRACK 59 AUDIO
    TITLE "LR_black_phrase_E_B07_059"
    INDEX 01 01:14:40
  TRACK 60 AUDIO
    TITLE "LR_black_phrase_E_B07_060"
    INDEX 01 01:15:10
  TRACK 61 AUDIO
    TITLE "LR_black_phrase_E_B07_061"
    INDEX 01 01:17:23
  TRACK 62 AUDIO
    TITLE "LR_black_phrase_E_B07_062"
    INDEX 01 01:18:18
  TRACK 63 AUDIO
    TITLE "LR_black_phrase_E_B07_063"
    INDEX 01 01:19:43
  TRACK 64 AUDIO
    TITLE "LR_black_phrase_E_B07_064"
    INDEX 01 01:19:63
  TRACK 65 AUDIO
    TITLE "LR_black_phrase_E_B07_065"
    INDEX 01 01:22:04
  TRACK 66 AUDIO
    TITLE "LR_black_phrase_E_B07_066"
    INDEX 01 01:22:51
  TRACK 67 AUDIO
    TITLE "LR_black_phrase_E_B07_067"
    INDEX 01 01:24:70
  TRACK 68 AUDIO
    TITLE "LR_black_phrase_E_B07_068"
    INDEX 01 01:25:67
  TRACK 69 AUDIO
    TITLE "LR_black_phrase_E_B07_069"
    INDEX 01 01:27:21
  TRACK 70 AUDIO
    TITLE "LR_black_phrase_E_B07_070"
    INDEX 01 01:27:47
  TRACK 71 AUDIO
    TITLE "LR_black_phrase_E_B07_071"
    INDEX 01 01:29:55
  TRACK 72 AUDIO
    TITLE "LR_black_phrase_E_B07_072"
    INDEX 01 01:30:29
  TRACK 73 AUDIO
    TITLE "LR_black_phrase_E_B07_073"
    INDEX 01 01:32:38
  TRACK 74 AUDIO
    TITLE "LR_black_phrase_E_B07_074"
    INDEX 01 01:33:41
  TRACK 75 AUDIO
    TITLE "LR_black_phrase_E_B07_075"
    INDEX 01 01:34:54
  TRACK 76 AUDIO
    TITLE "LR_black_phrase_E_B07_076"
    INDEX 01 01:35:07
  TRACK 77 AUDIO
    TITLE "LR_black_phrase_E_B07_077"
    INDEX 01 01:36:75
  TRACK 78 AUDIO
    TITLE "LR_black_phrase_E_B07_078"
    INDEX 01 01:37:55
  TRACK 79 AUDIO
    TITLE "LR_black_phrase_E_B07_079"
    INDEX 01 01:39:48
  TRACK 80 AUDIO
    TITLE "LR_black_phrase_E_B07_080"
    INDEX 01 01:40:51
  TRACK 81 AUDIO
    TITLE "LR_black_phrase_E_B07_081"
    INDEX 01 01:42:11
  TRACK 82 AUDIO
    TITLE "LR_black_phrase_E_B07_082"
    INDEX 01 01:42:40
  TRACK 83 AUDIO
    TITLE "LR_black_phrase_E_B07_083"
    INDEX 01 01:45:07
  TRACK 84 AUDIO
    TITLE "LR_black_phrase_E_B07_084"
    INDEX 01 01:45:62
  TRACK 85 AUDIO
    TITLE "LR_black_phrase_E_B07_085"
    INDEX 01 01:48:29
  TRACK 86 AUDIO
    TITLE "LR_black_phrase_E_B07_086"
    INDEX 01 01:49:34
  TRACK 87 AUDIO
    TITLE "LR_black_phrase_E_B07_087"
    INDEX 01 01:50:52
  TRACK 88 AUDIO
    TITLE "LR_black_phrase_E_B07_088"
    INDEX 01 01:51:04
  TRACK 89 AUDIO
    TITLE "LR_black_phrase_E_B07_089"
    INDEX 01 01:53:17
  TRACK 90 AUDIO
    TITLE "LR_black_phrase_E_B07_090"
    INDEX 01 01:53:71
  TRACK 91 AUDIO
    TITLE "LR_black_phrase_E_B07_091"
    INDEX 01 01:56:09
  TRACK 92 AUDIO
    TITLE "LR_black_phrase_E_B07_092"
    INDEX 01 01:57:09
  TRACK 93 AUDIO
    TITLE "LR_black_phrase_E_B07_093"
    INDEX 01 01:58:31
  TRACK 94 AUDIO
    TITLE "LR_black_phrase_E_B07_094"
    INDEX 01 01:58:51
  TRACK 95 AUDIO
    TITLE "LR_black_phrase_E_B07_095"
    INDEX 01 02:01:10
  TRACK 96 AUDIO
    TITLE "LR_black_phrase_E_B07_096"
    INDEX 01 02:01:55
  TRACK 97 AUDIO
    TITLE "LR_black_phrase_E_B07_097"
    INDEX 01 02:04:16
  TRACK 98 AUDIO
    TITLE "LR_black_phrase_E_B07_098"
    INDEX 01 02:05:10
  TRACK 99 AUDIO
    TITLE "LR_black_phrase_E_B07_099"
    INDEX 01 02:06:31
  TRACK 100 AUDIO
    TITLE "LR_black_phrase_E_B07_100"
    INDEX 01 02:06:51
  TRACK 101 AUDIO
    TITLE "LR_black_phrase_E_B07_101"
    INDEX 01 02:08:63
  TRACK 102 AUDIO
    TITLE "LR_black_phrase_E_B07_102"
    INDEX 01 02:09:33
  TRACK 103 AUDIO
    TITLE "LR_black_phrase_E_B07_103"
    INDEX 01 02:11:46
  TRACK 104 AUDIO
    TITLE "LR_black_phrase_E_B07_104"
    INDEX 01 02:12:41
  TRACK 105 AUDIO
    TITLE "LR_black_phrase_E_B07_105"
    INDEX 01 02:14:01
  TRACK 106 AUDIO
    TITLE "LR_black_phrase_E_B07_106"
    INDEX 01 02:14:21
  TRACK 107 AUDIO
    TITLE "LR_black_phrase_E_B07_107"
    INDEX 01 02:16:20
  TRACK 108 AUDIO
    TITLE "LR_black_phrase_E_B07_108"
    INDEX 01 02:16:65
  TRACK 109 AUDIO
    TITLE "LR_black_phrase_E_B07_109"
    INDEX 01 02:18:64
  TRACK 110 AUDIO
    TITLE "LR_black_phrase_E_B07_110"
    INDEX 01 02:19:65
  TRACK 111 AUDIO
    TITLE "LR_black_phrase_E_B07_111"
    INDEX 01 02:21:11
  TRACK 112 AUDIO
    TITLE "LR_black_phrase_E_B07_112"
    INDEX 01 02:21:42
  TRACK 113 AUDIO
    TITLE "LR_black_phrase_E_B07_113"
    INDEX 01 02:23:63
  TRACK 114 AUDIO
    TITLE "LR_black_phrase_E_B07_114"
    INDEX 01 02:24:43
  TRACK 115 AUDIO
    TITLE "LR_black_phrase_E_B07_115"
    INDEX 01 02:26:63
  TRACK 116 AUDIO
    TITLE "LR_black_phrase_E_B07_116"
    INDEX 01 02:27:68
  TRACK 117 AUDIO
    TITLE "LR_black_phrase_E_B07_117"
    INDEX 01 02:29:14
  TRACK 118 AUDIO
    TITLE "LR_black_phrase_E_B07_118"
    INDEX 01 02:29:42
  TRACK 119 AUDIO
    TITLE "LR_black_phrase_E_B07_119"
    INDEX 01 02:31:27
  TRACK 120 AUDIO
    TITLE "LR_black_phrase_E_B07_120"
    INDEX 01 02:32:07
  TRACK 121 AUDIO
    TITLE "LR_black_phrase_E_B07_121"
    INDEX 01 02:33:69
  TRACK 122 AUDIO
    TITLE "LR_black_phrase_E_B07_122"
    INDEX 01 02:34:72
  TRACK 123 AUDIO
    TITLE "LR_black_phrase_E_B07_123"
    INDEX 01 02:36:07
  TRACK 124 AUDIO
    TITLE "LR_black_phrase_E_B07_124"
    INDEX 01 02:36:38
  TRACK 125 AUDIO
    TITLE "LR_black_phrase_E_B07_125"
    INDEX 01 02:38:29
  TRACK 126 AUDIO
    TITLE "LR_black_phrase_E_B07_126"
    INDEX 01 02:39:07
  TRACK 127 AUDIO
    TITLE "LR_black_phrase_E_B07_127"
    INDEX 01 02:40:75
  TRACK 128 AUDIO
    TITLE "LR_black_phrase_E_B07_128"
    INDEX 01 02:41:74
  TRACK 129 AUDIO
    TITLE "LR_black_phrase_E_B07_129"
    INDEX 01 02:43:16
  TRACK 130 AUDIO
    TITLE "LR_black_phrase_E_B07_130"
    INDEX 01 02:43:38
  TRACK 131 AUDIO
    TITLE "LR_black_phrase_E_B07_131"
    INDEX 01 02:45:47
  TRACK 132 AUDIO
    TITLE "LR_black_phrase_E_B07_132"
    INDEX 01 02:46:23
  TRACK 133 AUDIO
    TITLE "LR_black_phrase_E_B07_133"
    INDEX 01 02:48:31
  TRACK 134 AUDIO
    TITLE "LR_black_phrase_E_B07_134"
    INDEX 01 02:49:33
  TRACK 135 AUDIO
    TITLE "LR_black_phrase_E_B07_135"
    INDEX 01 02:50:52
  TRACK 136 AUDIO
    TITLE "LR_black_phrase_E_B07_136"
    INDEX 01 02:50:75
  TRACK 137 AUDIO
    TITLE "LR_black_phrase_E_B07_137"
    INDEX 01 02:53:60
  TRACK 138 AUDIO
    TITLE "LR_black_phrase_E_B07_138"
    INDEX 01 02:54:32
  TRACK 139 AUDIO
    TITLE "LR_black_phrase_E_B07_139"
    INDEX 01 02:57:17
  TRACK 140 AUDIO
    TITLE "LR_black_phrase_E_B07_140"
    INDEX 01 02:58:12
  TRACK 141 AUDIO
    TITLE "LR_black_phrase_E_B07_141"
    INDEX 01 02:59:27
  TRACK 142 AUDIO
    TITLE "LR_black_phrase_E_B07_142"
    INDEX 01 02:59:47
  TRACK 143 AUDIO
    TITLE "LR_black_phrase_E_B07_143"
    INDEX 01 03:01:57
  TRACK 144 AUDIO
    TITLE "LR_black_phrase_E_B07_144"
    INDEX 01 03:02:28
  TRACK 145 AUDIO
    TITLE "LR_black_phrase_E_B07_145"
    INDEX 01 03:04:36
  TRACK 146 AUDIO
    TITLE "LR_black_phrase_E_B07_146"
    INDEX 01 03:05:40
  TRACK 147 AUDIO
    TITLE "LR_black_phrase_E_B07_147"
    INDEX 01 03:06:66
  TRACK 148 AUDIO
    TITLE "LR_black_phrase_E_B07_148"
    INDEX 01 03:07:19
  TRACK 149 AUDIO
    TITLE "LR_black_phrase_E_B07_149"
    INDEX 01 03:09:47
  TRACK 150 AUDIO
    TITLE "LR_black_phrase_E_B07_150"
    INDEX 01 03:10:27
  TRACK 151 AUDIO
    TITLE "LR_black_phrase_E_B07_151"
    INDEX 01 03:12:55
  TRACK 152 AUDIO
    TITLE "LR_black_phrase_E_B07_152"
    INDEX 01 03:13:61
  TRACK 153 AUDIO
    TITLE "LR_black_phrase_E_B07_153"
    INDEX 01 03:15:05
  TRACK 154 AUDIO
    TITLE "LR_black_phrase_E_B07_154"
    INDEX 01 03:15:32
  TRACK 155 AUDIO
    TITLE "LR_black_phrase_E_B07_155"
    INDEX 01 03:17:37
  TRACK 156 AUDIO
    TITLE "LR_black_phrase_E_B07_156"
    INDEX 01 03:18:15
  TRACK 157 AUDIO
    TITLE "LR_black_phrase_E_B07_157"
    INDEX 01 03:20:20
  TRACK 158 AUDIO
    TITLE "LR_black_phrase_E_B07_158"
    INDEX 01 03:21:21
  TRACK 159 AUDIO
    TITLE "LR_black_phrase_E_B07_159"
    INDEX 01 03:22:38
  TRACK 160 AUDIO
    TITLE "LR_black_phrase_E_B07_160"
    INDEX 01 03:22:60
  TRACK 161 AUDIO
    TITLE "LR_black_phrase_E_B07_161"
    INDEX 01 03:24:43
  TRACK 162 AUDIO
    TITLE "LR_black_phrase_E_B07_162"
    INDEX 01 03:25:17
  TRACK 163 AUDIO
    TITLE "LR_black_phrase_E_B07_163"
    INDEX 01 03:26:75
  TRACK 164 AUDIO
    TITLE "LR_black_phrase_E_B07_164"
    INDEX 01 03:27:75
  TRACK 165 AUDIO
    TITLE "LR_black_phrase_E_B07_165"
    INDEX 01 03:29:07
  TRACK 166 AUDIO
    TITLE "LR_black_phrase_E_B07_166"
    INDEX 01 03:29:30
  TRACK 167 AUDIO
    TITLE "LR_black_phrase_E_B07_167"
    INDEX 01 03:31:19
  TRACK 168 AUDIO
    TITLE "LR_black_phrase_E_B07_168"
    INDEX 01 03:31:66
  TRACK 169 AUDIO
    TITLE "LR_black_phrase_E_B07_169"
    INDEX 01 03:33:57
  TRACK 170 AUDIO
    TITLE "LR_black_phrase_E_B07_170"
    INDEX 01 03:34:55
  TRACK 171 AUDIO
    TITLE "LR_black_phrase_E_B07_171"
    INDEX 01 03:35:68
  TRACK 172 AUDIO
    TITLE "LR_black_phrase_E_B07_172"
    INDEX 01 03:36:15
  TRACK 173 AUDIO
    TITLE "LR_black_phrase_E_B07_173"
    INDEX 01 03:38:45
  TRACK 174 AUDIO
    TITLE "LR_black_phrase_E_B07_174"
    INDEX 01 03:39:23
  TRACK 175 AUDIO
    TITLE "LR_black_phrase_E_B07_175"
    INDEX 01 03:41:55
  TRACK 176 AUDIO
    TITLE "LR_black_phrase_E_B07_176"
    INDEX 01 03:42:54
  TRACK 177 AUDIO
    TITLE "LR_black_phrase_E_B07_177"
    INDEX 01 03:44:06
  TRACK 178 AUDIO
    TITLE "LR_black_phrase_E_B07_178"
    INDEX 01 03:44:26
  TRACK 179 AUDIO
    TITLE "LR_black_phrase_E_B07_179"
    INDEX 01 03:46:23
  TRACK 180 AUDIO
    TITLE "LR_black_phrase_E_B07_180"
    INDEX 01 03:46:66
  TRACK 181 AUDIO
    TITLE "LR_black_phrase_E_B07_181"
    INDEX 01 03:48:63
